<?xml version="1.0" standalone="no"?>
<!DOCTYPE svg PUBLIC "-//W3C//DTD SVG 20010904//EN"
 "http://www.w3.org/TR/2001/REC-SVG-20010904/DTD/svg10.dtd">
<svg version="1.0" xmlns="http://www.w3.org/2000/svg"
 width="32.000000pt" height="32.000000pt" viewBox="0 0 32.000000 32.000000"
 preserveAspectRatio="xMidYMid meet">

<g transform="translate(0.000000,32.000000) scale(0.100000,-0.100000)"
fill="#000000" stroke="none">
<path d="M98 250 l-48 -30 0 -63 0 -62 49 -27 c27 -16 55 -28 62 -28 8 0 35
14 62 30 l47 30 0 63 0 64 -49 26 c-27 15 -55 27 -62 27 -8 0 -35 -14 -61 -30z
m110 -12 c41 -23 42 -24 42 -75 0 -51 -1 -53 -44 -78 l-44 -26 -46 23 c-46 22
-46 22 -46 74 0 51 1 54 43 78 23 14 44 26 47 26 3 0 24 -10 48 -22z"/>
<path d="M120 200 c-11 -11 -20 -29 -20 -40 0 -26 34 -60 60 -60 26 0 60 34
60 60 0 11 -9 29 -20 40 -11 11 -29 20 -40 20 -11 0 -29 -9 -40 -20z m70 -15
c26 -32 -13 -81 -47 -59 -23 14 -28 41 -13 59 16 19 44 19 60 0z"/>
</g>
</svg>
